<?xml version="1.0" encoding="UTF-8" standalone="no"?>
<svg version="1.1" xmlns="http://www.w3.org/2000/svg" xmlns:xlink="http://www.w3.org/1999/xlink"
     preserveAspectRatio="xMidYMid meet" viewBox="0 0 640 640" width="640" height="640">
    <defs>
        <path d="M812.98 346.86L812.98 796.86L342.83 796.86L-127.3 796.86L-127.3 346.86L-127.3 -103.14L342.83 -103.14L812.98 -103.14L812.98 346.86Z"
              id="cYMQ7Kz37"/>
        <path d="M812.98 346.86L812.98 796.86L342.83 796.86L-127.3 796.86L-127.3 346.86L-127.3 -103.14L342.83 -103.14L812.98 -103.14L812.98 346.86Z"
              id="aMelhVoLM"/>
        <path d="M775.48 346.86L775.48 796.86L305.33 796.86L-164.8 796.86L-164.8 346.86L-164.8 -103.14L305.33 -103.14L775.48 -103.14L775.48 346.86ZM335.89 581.16C348.81 585.75 355.48 601.03 349.64 612.55C344.64 622.27 338.94 627.27 332.83 627.42C328.66 627.42 328.66 630.88 332.83 633.66C341.59 639.36 361.31 636.72 371.44 628.53C379.09 622.42 382.83 610.33 380.89 598.38C379.36 588.25 377.7 583.81 374.09 579.08C368.66 572.27 371.72 565.88 384.36 557.69C393.25 551.99 413.81 529.49 415.2 523.94C417.14 516.31 418.94 515.88 449.36 515.75C468.11 515.61 480.2 516.16 485.33 517.42C492.7 519.08 493.66 519.77 499.09 527.55C502.28 532.14 509.22 541.03 514.64 547.27C525.2 559.77 527.98 564.36 536.59 585.05C543.94 603.11 545.05 604.49 553.53 608.81C554.01 609.04 556.42 610.25 560.75 612.42C562.33 610.49 563.21 609.43 563.39 609.22C564.92 607.42 568.25 601.58 570.89 596.16C575.75 586.58 575.75 586.31 574.22 577.83C571.59 563.11 565.48 551.16 547.98 525.47C538.53 511.72 529.22 497.83 527.28 494.49C525.33 491.16 521.86 486.58 519.64 484.36C515.61 480.33 515.33 480.19 500.75 480.19C486.44 480.19 439.22 477.83 438.66 477.14C438.53 476.86 438.94 470.47 439.64 462.83C440.33 455.19 441.16 444.64 441.59 439.22C442.55 426.86 444.22 422.42 448.81 420.61C453.11 418.94 483.39 416.72 499.92 416.99C500.66 417.01 504.42 417.05 511.16 417.14C516.92 422.22 520.11 425.04 520.75 425.61C526.03 430.33 539.36 441.86 550.48 451.31C561.44 460.75 577.28 474.77 585.61 482.69C605.48 501.31 606.31 501.72 619.92 499.64C625.75 498.66 631.31 497.55 632 497.14C633.94 495.88 630.48 458.66 628.25 455.88C627.42 454.77 622.14 450.88 616.72 447.27C611.16 443.66 602 437.14 596.16 432.83C590.33 428.38 580.61 421.72 574.64 417.69C568.53 413.66 561.86 408.66 559.5 406.44C557.28 404.36 548.53 398.53 540.2 393.38C531.86 388.25 522.98 382.69 520.48 381.03C515.33 377.55 513.66 377.69 467.42 383.81C466.18 383.95 460.03 384.75 448.94 386.16C447.11 384.42 446.1 383.44 445.89 383.25C443.11 380.33 442.98 379.08 442.83 349.08C442.83 320.88 443.11 317.55 445.33 315.33C447.55 313.11 451.03 312.83 475.48 312.42C477.32 312.38 486.59 312.25 503.25 311.99C506.75 307.75 508.7 305.38 509.09 304.92C518.25 294.08 537.14 278.11 554.09 266.86C562.55 261.31 571.72 254.22 574.5 251.03C578.94 246.31 579.64 244.49 579.64 238.81C579.64 235.19 580.33 226.72 581.03 219.92C581.86 213.11 582 206.99 581.44 206.44C580.75 205.75 574.09 206.16 566.44 207.27C552.83 209.36 552.42 209.49 547 215.47C543.94 218.81 539.22 225.19 536.59 229.64C530.48 240.19 521.86 250.88 514.92 256.72C512 259.22 506.59 264.08 502.98 267.42C502.54 267.83 500.42 269.92 496.59 273.66C489.09 273.49 484.92 273.39 484.09 273.38C472.14 273.11 444.09 269.08 440.89 267.14C439.09 265.88 437.28 259.08 435.2 244.08C434.22 237.55 432.42 227.97 431.16 222.55C429.22 214.22 428.53 212.83 426.16 213.11C424.64 213.38 419.09 214.22 413.66 215.05C407.7 216.03 375.05 216.86 328.94 217.27C254.5 217.83 252.98 217.69 211.59 213.25C208.39 212.83 208.11 213.53 205.89 223.25C204.64 228.94 202.55 240.61 201.16 248.94C199.92 257.42 197.98 265.05 197 266.03C194.64 268.66 168.11 273.11 153.25 273.38C152.43 273.39 148.36 273.49 141.03 273.66C136.61 269.58 134.15 267.32 133.66 266.86C116.03 250.61 107.27 240.88 101.16 230.33C97.42 224.22 92.27 216.99 89.5 214.36C84.92 209.92 83.25 209.22 70.61 207.42C62.97 206.31 56.31 205.75 55.89 206.31C55.33 206.86 55.47 211.72 56.16 216.99C56.72 222.42 57.27 230.75 57.27 235.75C57.42 244.64 57.55 245.05 64.09 251.72C67.7 255.61 77.97 263.53 87 269.49C98.25 276.99 108.39 285.33 119.36 296.16C120.43 297.22 125.75 302.49 135.33 311.99C151.92 312.25 161.12 312.38 162.98 312.42C183.11 312.69 191.16 313.25 192.42 314.64C196.59 318.81 195.33 379.49 191.03 383.81C188.66 386.31 184.36 386.03 158.11 382.14C150.48 381.03 138.94 379.77 132.42 379.36C131.62 379.31 127.7 379.03 120.61 378.53C116.03 381.61 113.49 383.32 112.97 383.66C108.81 386.44 100.61 391.58 94.77 394.92C88.94 398.38 81.44 403.53 78.11 406.31C74.77 409.22 66.72 415.19 60.2 419.64C53.66 423.94 45.33 429.77 41.44 432.55C37.7 435.33 28.53 441.86 21.31 446.86C20.43 447.48 16.03 450.58 8.11 456.16C7.36 462.75 6.94 466.39 6.86 467.14C6.16 473.11 5.47 482.42 5.47 487.83C5.45 488.47 5.42 491.66 5.33 497.42C11.83 498.58 15.44 499.23 16.16 499.36C30.33 501.86 32 501.16 50.33 483.81C65.61 469.36 87.14 450.47 103.11 437.42C108.25 433.25 115.33 426.99 119.09 423.53C119.54 423.09 121.81 420.92 125.89 416.99C139.31 417.16 146.76 417.26 148.25 417.27C174.09 417.55 188.81 419.36 192 422.55C193.39 423.94 194.5 428.53 195.2 435.47C195.61 441.31 196.72 453.11 197.42 461.44C198.25 469.92 198.66 476.86 198.53 477.14C197.83 477.83 150.61 480.19 136.44 480.19C122.27 480.19 121.72 480.33 118.25 484.08C113.39 489.22 75.75 545.05 71.03 554.08C68.81 558.11 65.75 566.99 64.09 573.94C63.89 574.76 62.92 578.88 61.16 586.31C64.83 593.31 66.87 597.19 67.27 597.97C70.61 604.36 74.22 610.19 75.05 611.03C77.14 612.69 87.55 608.11 91.72 603.38C93.25 601.72 98.11 591.72 102.42 581.31C109.09 565.61 112 560.47 119.5 551.44C124.5 545.47 132 536.03 136.16 530.61C140.2 525.05 144.64 519.92 146.03 519.22C151.86 516.16 172.28 514.49 193.81 515.47C205.89 516.03 216.59 516.72 217.7 517.14C218.81 517.55 220.61 520.33 221.86 523.25C224.64 530.33 242.98 551.31 249.64 555.19C258.39 560.33 265.75 568.53 265.75 573.11C265.75 575.47 265.05 577.69 264.36 578.11C260.89 580.19 257.14 590.88 256.44 600.33C255.2 616.72 259.64 626.03 272.28 632.69C281.44 637.69 298.39 637.83 304.5 633.25C309.09 629.92 308.66 628.38 303.25 627.27C293.66 625.33 283.94 610.47 285.61 600.47C286.72 593.38 292.55 585.05 298.66 582.27C306.31 578.53 326.72 577.97 335.89 581.16ZM374.64 127.27C372.42 124.92 372.83 124.22 380.48 114.77C385.05 109.36 390.75 102.55 393.11 99.64C398.11 93.94 402.55 84.77 407.42 69.92C412.28 55.05 410.2 40.33 401.03 25.33C398.25 20.75 395.05 15.33 393.94 13.25C391.86 9.36 383.39 5.19 377.14 5.19C372.42 5.19 365.05 9.64 362.83 13.66C362 15.47 361.16 19.36 361.16 22.42C361.16 30.47 364.92 32.97 376.86 32.97C385.05 32.97 387 33.53 390.61 36.58C401.16 45.33 400.2 71.99 388.81 85.19C381.72 93.53 370.75 97.97 352.55 99.77C351.56 99.87 346.61 100.38 337.7 101.31C337.05 100.87 333.86 98.75 328.11 94.92C327.48 94.49 324.28 92.36 318.53 88.53C312.94 92.27 309.84 94.36 309.22 94.77C303.64 98.61 300.53 100.74 299.92 101.16C293.59 100.66 290.06 100.38 289.36 100.33C266.44 98.38 253.94 93.38 246.44 82.97C241.44 76.16 238.66 63.25 239.92 52.97C241.72 37.83 246.72 32.97 260.48 32.97C273.94 32.97 278.66 27.97 275.48 16.58C274.5 12.55 272.83 10.47 268.66 8.25C265.75 6.58 261.72 5.19 259.64 5.19C253.11 5.19 245.48 9.22 243.11 13.94C241.72 16.44 238.53 21.86 235.89 26.03C233.11 30.47 230.2 37.83 228.94 43.66C226.86 52.83 226.72 54.77 228.66 64.08C231.03 75.61 239.22 94.49 244.22 99.64C246.03 101.58 248.94 105.05 250.75 107.55C252.55 110.05 256.31 114.77 259.09 118.11C259.43 118.51 261.2 120.55 264.36 124.22C261.7 129.05 260.21 131.73 259.92 132.27C252.42 146.16 252.98 161.99 262 192.27C262.21 192.94 263.22 196.27 265.05 202.27C272.14 202.61 276.06 202.78 276.86 202.83C300.89 203.66 337.83 203.81 354.78 202.97C357.1 202.84 362.88 202.51 372.14 201.99C374.31 194.83 375.51 190.84 375.75 190.05C381.31 171.31 382.42 165.61 382.42 154.49C382.42 143.66 379.22 132.27 374.64 127.27Z"
              id="bwGoXSlUK"/>
        <path d="M775.48 346.86L775.48 796.86L305.33 796.86L-164.8 796.86L-164.8 346.86L-164.8 -103.14L305.33 -103.14L775.48 -103.14L775.48 346.86ZM335.89 581.16C348.81 585.75 355.48 601.03 349.64 612.55C344.64 622.27 338.94 627.27 332.83 627.42C328.66 627.42 328.66 630.88 332.83 633.66C341.59 639.36 361.31 636.72 371.44 628.53C379.09 622.42 382.83 610.33 380.89 598.38C379.36 588.25 377.7 583.81 374.09 579.08C368.66 572.27 371.72 565.88 384.36 557.69C393.25 551.99 413.81 529.49 415.2 523.94C417.14 516.31 418.94 515.88 449.36 515.75C468.11 515.61 480.2 516.16 485.33 517.42C492.7 519.08 493.66 519.77 499.09 527.55C502.28 532.14 509.22 541.03 514.64 547.27C525.2 559.77 527.98 564.36 536.59 585.05C543.94 603.11 545.05 604.49 553.53 608.81C554.01 609.04 556.42 610.25 560.75 612.42C562.33 610.49 563.21 609.43 563.39 609.22C564.92 607.42 568.25 601.58 570.89 596.16C575.75 586.58 575.75 586.31 574.22 577.83C571.59 563.11 565.48 551.16 547.98 525.47C538.53 511.72 529.22 497.83 527.28 494.49C525.33 491.16 521.86 486.58 519.64 484.36C515.61 480.33 515.33 480.19 500.75 480.19C486.44 480.19 439.22 477.83 438.66 477.14C438.53 476.86 438.94 470.47 439.64 462.83C440.33 455.19 441.16 444.64 441.59 439.22C442.55 426.86 444.22 422.42 448.81 420.61C453.11 418.94 483.39 416.72 499.92 416.99C500.66 417.01 504.42 417.05 511.16 417.14C516.92 422.22 520.11 425.04 520.75 425.61C526.03 430.33 539.36 441.86 550.48 451.31C561.44 460.75 577.28 474.77 585.61 482.69C605.48 501.31 606.31 501.72 619.92 499.64C625.75 498.66 631.31 497.55 632 497.14C633.94 495.88 630.48 458.66 628.25 455.88C627.42 454.77 622.14 450.88 616.72 447.27C611.16 443.66 602 437.14 596.16 432.83C590.33 428.38 580.61 421.72 574.64 417.69C568.53 413.66 561.86 408.66 559.5 406.44C557.28 404.36 548.53 398.53 540.2 393.38C531.86 388.25 522.98 382.69 520.48 381.03C515.33 377.55 513.66 377.69 467.42 383.81C466.18 383.95 460.03 384.75 448.94 386.16C447.11 384.42 446.1 383.44 445.89 383.25C443.11 380.33 442.98 379.08 442.83 349.08C442.83 320.88 443.11 317.55 445.33 315.33C447.55 313.11 451.03 312.83 475.48 312.42C477.32 312.38 486.59 312.25 503.25 311.99C506.75 307.75 508.7 305.38 509.09 304.92C518.25 294.08 537.14 278.11 554.09 266.86C562.55 261.31 571.72 254.22 574.5 251.03C578.94 246.31 579.64 244.49 579.64 238.81C579.64 235.19 580.33 226.72 581.03 219.92C581.86 213.11 582 206.99 581.44 206.44C580.75 205.75 574.09 206.16 566.44 207.27C552.83 209.36 552.42 209.49 547 215.47C543.94 218.81 539.22 225.19 536.59 229.64C530.48 240.19 521.86 250.88 514.92 256.72C512 259.22 506.59 264.08 502.98 267.42C502.54 267.83 500.42 269.92 496.59 273.66C489.09 273.49 484.92 273.39 484.09 273.38C472.14 273.11 444.09 269.08 440.89 267.14C439.09 265.88 437.28 259.08 435.2 244.08C434.22 237.55 432.42 227.97 431.16 222.55C429.22 214.22 428.53 212.83 426.16 213.11C424.64 213.38 419.09 214.22 413.66 215.05C407.7 216.03 375.05 216.86 328.94 217.27C254.5 217.83 252.98 217.69 211.59 213.25C208.39 212.83 208.11 213.53 205.89 223.25C204.64 228.94 202.55 240.61 201.16 248.94C199.92 257.42 197.98 265.05 197 266.03C194.64 268.66 168.11 273.11 153.25 273.38C152.43 273.39 148.36 273.49 141.03 273.66C136.61 269.58 134.15 267.32 133.66 266.86C116.03 250.61 107.27 240.88 101.16 230.33C97.42 224.22 92.27 216.99 89.5 214.36C84.92 209.92 83.25 209.22 70.61 207.42C62.97 206.31 56.31 205.75 55.89 206.31C55.33 206.86 55.47 211.72 56.16 216.99C56.72 222.42 57.27 230.75 57.27 235.75C57.42 244.64 57.55 245.05 64.09 251.72C67.7 255.61 77.97 263.53 87 269.49C98.25 276.99 108.39 285.33 119.36 296.16C120.43 297.22 125.75 302.49 135.33 311.99C151.92 312.25 161.12 312.38 162.98 312.42C183.11 312.69 191.16 313.25 192.42 314.64C196.59 318.81 195.33 379.49 191.03 383.81C188.66 386.31 184.36 386.03 158.11 382.14C150.48 381.03 138.94 379.77 132.42 379.36C131.62 379.31 127.7 379.03 120.61 378.53C116.03 381.61 113.49 383.32 112.97 383.66C108.81 386.44 100.61 391.58 94.77 394.92C88.94 398.38 81.44 403.53 78.11 406.31C74.77 409.22 66.72 415.19 60.2 419.64C53.66 423.94 45.33 429.77 41.44 432.55C37.7 435.33 28.53 441.86 21.31 446.86C20.43 447.48 16.03 450.58 8.11 456.16C7.36 462.75 6.94 466.39 6.86 467.14C6.16 473.11 5.47 482.42 5.47 487.83C5.45 488.47 5.42 491.66 5.33 497.42C11.83 498.58 15.44 499.23 16.16 499.36C30.33 501.86 32 501.16 50.33 483.81C65.61 469.36 87.14 450.47 103.11 437.42C108.25 433.25 115.33 426.99 119.09 423.53C119.54 423.09 121.81 420.92 125.89 416.99C139.31 417.16 146.76 417.26 148.25 417.27C174.09 417.55 188.81 419.36 192 422.55C193.39 423.94 194.5 428.53 195.2 435.47C195.61 441.31 196.72 453.11 197.42 461.44C198.25 469.92 198.66 476.86 198.53 477.14C197.83 477.83 150.61 480.19 136.44 480.19C122.27 480.19 121.72 480.33 118.25 484.08C113.39 489.22 75.75 545.05 71.03 554.08C68.81 558.11 65.75 566.99 64.09 573.94C63.89 574.76 62.92 578.88 61.16 586.31C64.83 593.31 66.87 597.19 67.27 597.97C70.61 604.36 74.22 610.19 75.05 611.03C77.14 612.69 87.55 608.11 91.72 603.38C93.25 601.72 98.11 591.72 102.42 581.31C109.09 565.61 112 560.47 119.5 551.44C124.5 545.47 132 536.03 136.16 530.61C140.2 525.05 144.64 519.92 146.03 519.22C151.86 516.16 172.28 514.49 193.81 515.47C205.89 516.03 216.59 516.72 217.7 517.14C218.81 517.55 220.61 520.33 221.86 523.25C224.64 530.33 242.98 551.31 249.64 555.19C258.39 560.33 265.75 568.53 265.75 573.11C265.75 575.47 265.05 577.69 264.36 578.11C260.89 580.19 257.14 590.88 256.44 600.33C255.2 616.72 259.64 626.03 272.28 632.69C281.44 637.69 298.39 637.83 304.5 633.25C309.09 629.92 308.66 628.38 303.25 627.27C293.66 625.33 283.94 610.47 285.61 600.47C286.72 593.38 292.55 585.05 298.66 582.27C306.31 578.53 326.72 577.97 335.89 581.16ZM374.64 127.27C372.42 124.92 372.83 124.22 380.48 114.77C385.05 109.36 390.75 102.55 393.11 99.64C398.11 93.94 402.55 84.77 407.42 69.92C412.28 55.05 410.2 40.33 401.03 25.33C398.25 20.75 395.05 15.33 393.94 13.25C391.86 9.36 383.39 5.19 377.14 5.19C372.42 5.19 365.05 9.64 362.83 13.66C362 15.47 361.16 19.36 361.16 22.42C361.16 30.47 364.92 32.97 376.86 32.97C385.05 32.97 387 33.53 390.61 36.58C401.16 45.33 400.2 71.99 388.81 85.19C381.72 93.53 370.75 97.97 352.55 99.77C351.56 99.87 346.61 100.38 337.7 101.31C337.05 100.87 333.86 98.75 328.11 94.92C327.48 94.49 324.28 92.36 318.53 88.53C312.94 92.27 309.84 94.36 309.22 94.77C303.64 98.61 300.53 100.74 299.92 101.16C293.59 100.66 290.06 100.38 289.36 100.33C266.44 98.38 253.94 93.38 246.44 82.97C241.44 76.16 238.66 63.25 239.92 52.97C241.72 37.83 246.72 32.97 260.48 32.97C273.94 32.97 278.66 27.97 275.48 16.58C274.5 12.55 272.83 10.47 268.66 8.25C265.75 6.58 261.72 5.19 259.64 5.19C253.11 5.19 245.48 9.22 243.11 13.94C241.72 16.44 238.53 21.86 235.89 26.03C233.11 30.47 230.2 37.83 228.94 43.66C226.86 52.83 226.72 54.77 228.66 64.08C231.03 75.61 239.22 94.49 244.22 99.64C246.03 101.58 248.94 105.05 250.75 107.55C252.55 110.05 256.31 114.77 259.09 118.11C259.43 118.51 261.2 120.55 264.36 124.22C261.7 129.05 260.21 131.73 259.92 132.27C252.42 146.16 252.98 161.99 262 192.27C262.21 192.94 263.22 196.27 265.05 202.27C272.14 202.61 276.06 202.78 276.86 202.83C300.89 203.66 337.83 203.81 354.78 202.97C357.1 202.84 362.88 202.51 372.14 201.99C374.31 194.83 375.51 190.84 375.75 190.05C381.31 171.31 382.42 165.61 382.42 154.49C382.42 143.66 379.22 132.27 374.64 127.27Z"
              id="h19Bt3tXD3"/>
        <path d="M307.7 111.58C308.42 111.04 312.03 108.36 318.53 103.53C325.28 108.36 329.03 111.04 329.78 111.58C336.03 116.16 346.03 124.49 351.86 130.19C369.5 147.42 372.7 161.72 363.39 183.25C361.31 188.11 361.03 188.38 352.7 189.08C336.31 190.47 313.53 190.75 297 189.92C287.83 189.36 279.22 188.81 277.98 188.66C275.2 188.53 270.48 176.72 269.09 166.58C268.53 161.58 268.94 157.55 270.61 152.27C275.05 138.94 283.11 129.92 307.7 111.58Z"
              id="cJ5IZuhu2"/>
        <path d="M307.7 111.58C308.42 111.04 312.03 108.36 318.53 103.53C325.28 108.36 329.03 111.04 329.78 111.58C336.03 116.16 346.03 124.49 351.86 130.19C369.5 147.42 372.7 161.72 363.39 183.25C361.31 188.11 361.03 188.38 352.7 189.08C336.31 190.47 313.53 190.75 297 189.92C287.83 189.36 279.22 188.81 277.98 188.66C275.2 188.53 270.48 176.72 269.09 166.58C268.53 161.58 268.94 157.55 270.61 152.27C275.05 138.94 283.11 129.92 307.7 111.58Z"
              id="g4ucxAAuL"/>
        <path d="M217.73 437.83C212.32 419.64 208.43 354.77 211.62 334.36C215.38 310.33 228.15 249.92 231.62 239.92C231.73 239.59 232.29 237.97 233.29 235.05C235.53 235.03 246.73 234.88 266.9 234.64C287.06 234.47 298.28 234.37 300.51 234.36C301.84 237.44 302.6 239.15 302.73 239.49C303.99 242.42 307.73 251.99 310.93 260.75C314.26 269.49 317.73 276.72 318.56 276.72C319.4 276.72 322.73 269.92 326.06 261.44C329.26 253.11 333.15 243.66 334.54 240.61C334.73 240.23 335.65 238.38 337.32 235.05C339.52 235.03 350.54 234.88 370.38 234.64C390.12 234.47 401.1 234.37 403.29 234.36C404.45 237.03 405.11 238.51 405.23 238.81C408.56 246.31 418.43 292.27 425.51 332.14C427.6 344.08 427.18 377.55 424.82 402.42C422.32 426.86 410.1 482.69 403.99 496.31C397.32 511.31 385.51 528.25 376.49 535.88C363.43 546.86 354.26 550.47 335.1 552.27C317.45 553.94 318.01 553.94 299.12 552.14C288.15 551.16 284.26 550.05 276.21 545.88C257.73 536.44 248.43 525.88 235.51 500.05C231.62 492.27 228.56 482.83 224.95 466.99C222.04 454.77 218.84 441.72 217.73 437.83Z"
              id="cewxsWRxP"/>
        <path d="M217.73 437.83C212.32 419.64 208.43 354.77 211.62 334.36C215.38 310.33 228.15 249.92 231.62 239.92C231.73 239.59 232.29 237.97 233.29 235.05C235.53 235.03 246.73 234.88 266.9 234.64C287.06 234.47 298.28 234.37 300.51 234.36C301.84 237.44 302.6 239.15 302.73 239.49C303.99 242.42 307.73 251.99 310.93 260.75C314.26 269.49 317.73 276.72 318.56 276.72C319.4 276.72 322.73 269.92 326.06 261.44C329.26 253.11 333.15 243.66 334.54 240.61C334.73 240.23 335.65 238.38 337.32 235.05C339.52 235.03 350.54 234.88 370.38 234.64C390.12 234.47 401.1 234.37 403.29 234.36C404.45 237.03 405.11 238.51 405.23 238.81C408.56 246.31 418.43 292.27 425.51 332.14C427.6 344.08 427.18 377.55 424.82 402.42C422.32 426.86 410.1 482.69 403.99 496.31C397.32 511.31 385.51 528.25 376.49 535.88C363.43 546.86 354.26 550.47 335.1 552.27C317.45 553.94 318.01 553.94 299.12 552.14C288.15 551.16 284.26 550.05 276.21 545.88C257.73 536.44 248.43 525.88 235.51 500.05C231.62 492.27 228.56 482.83 224.95 466.99C222.04 454.77 218.84 441.72 217.73 437.83Z"
              id="f2pfDBBwOf"/>
    </defs>
    <g>
        <g>
            <g>
                <use xlink:href="#cYMQ7Kz37" opacity="1" fill="#000000" fill-opacity="1"/>
                <g>
                    <use xlink:href="#cYMQ7Kz37" opacity="1" fill-opacity="0" stroke="#000000" stroke-width="1"
                         stroke-opacity="0"/>
                </g>
            </g>
            <g>
                <use xlink:href="#aMelhVoLM" opacity="1" fill="#000000" fill-opacity="0"/>
                <g>
                    <use xlink:href="#aMelhVoLM" opacity="1" fill-opacity="0" stroke="#000000" stroke-width="1"
                         stroke-opacity="0"/>
                </g>
            </g>
            <g>
                <use xlink:href="#bwGoXSlUK" opacity="1" fill="#ffffff" fill-opacity="1"/>
                <g>
                    <use xlink:href="#bwGoXSlUK" opacity="1" fill-opacity="0" stroke="#000000" stroke-width="1"
                         stroke-opacity="0"/>
                </g>
            </g>
            <g>
                <use xlink:href="#h19Bt3tXD3" opacity="1" fill="#000000" fill-opacity="0"/>
                <g>
                    <use xlink:href="#h19Bt3tXD3" opacity="1" fill-opacity="0" stroke="#000000" stroke-width="1"
                         stroke-opacity="0"/>
                </g>
            </g>
            <g>
                <use xlink:href="#cJ5IZuhu2" opacity="1" fill="#339900" fill-opacity="1"/>
                <g>
                    <use xlink:href="#cJ5IZuhu2" opacity="1" fill-opacity="0" stroke="#000000" stroke-width="1"
                         stroke-opacity="0"/>
                </g>
            </g>
            <g>
                <use xlink:href="#g4ucxAAuL" opacity="1" fill="#000000" fill-opacity="0"/>
                <g>
                    <use xlink:href="#g4ucxAAuL" opacity="1" fill-opacity="0" stroke="#000000" stroke-width="1"
                         stroke-opacity="0"/>
                </g>
            </g>
            <g>
                <use xlink:href="#cewxsWRxP" opacity="1" fill="#339900" fill-opacity="1"/>
                <g>
                    <use xlink:href="#cewxsWRxP" opacity="1" fill-opacity="0" stroke="#000000" stroke-width="1"
                         stroke-opacity="0"/>
                </g>
            </g>
            <g>
                <use xlink:href="#f2pfDBBwOf" opacity="1" fill="#000000" fill-opacity="0"/>
                <g>
                    <use xlink:href="#f2pfDBBwOf" opacity="1" fill-opacity="0" stroke="#000000" stroke-width="1"
                         stroke-opacity="0"/>
                </g>
            </g>
        </g>
    </g>
</svg>